# Export of simple
# from Aaro4130 OBJ Exporter v2.0
mtllib unityQuad.mtl
g Quad (1)
v -5.3 -0.9837379 -1.751651
v -10.3 -0.9837379 -1.751651
v -5.3 2.583738 1.751651
v -10.3 2.583738 1.751651
vn 0 0.4045264 -0.4119366
vn 0 0.4045264 -0.4119366
vn 0 0.4045264 -0.4119366
vn 0 0.4045264 -0.4119366
vt 0 0
vt 1 0
vt 0 1
vt 1 1
usemtl Default-Material
f 2/2/2 4/4/4 1/1/1
f 3/3/3 1/1/1 4/4/4
g Quad
v 6.6 0.2 -9.184851E-17
v 3.6 0.2 -9.184851E-17
v 6.6 3.2 9.184851E-17
v 3.6 3.2 9.184851E-17
vn 0 0 -0.5773503
vn 0 0 -0.5773503
vn 0 0 -0.5773503
vn 0 0 -0.5773503
vt 0 0
vt 1 0
vt 0 1
vt 1 1
usemtl Default-Material
f 6/6/6 8/8/8 5/5/5
f 7/7/7 5/5/5 8/8/8
